<?xml version="1.0" encoding="UTF-8"?><svg id="Layer_2" xmlns="http://www.w3.org/2000/svg" viewBox="0 0 1128.81 208.95"><defs><style>.cls-1{fill:#fff;}.cls-2{fill:#e21f26;}.cls-3{fill:#141414;}</style></defs><g id="Layer_1-2"><g><g><path class="cls-2" d="M118.63,143.82c-10.64,29-45.11,43.02-77,31.32C9.74,163.44-7.49,130.45,3.14,101.45c10.64-29,45.12-43.02,77.01-31.32,31.89,11.7,49.12,44.69,38.48,73.69"/><path class="cls-3" d="M16.78,108.61c-9.62,13.78-.08,34.71,8.26,42.63,7.3,6.93,23.56,15.76,38.3,12.86-18.71-8.92-44.6-24.46-46.01-55.29"/><path class="cls-1" d="M96.24,131.18c-2.18,3.66-7.73,4.37-12.41,1.59-4.68-2.78-6.72-8-4.54-11.66,2.17-3.66,7.73-4.37,12.42-1.59,4.68,2.78,6.71,8.01,4.54,11.66"/><path class="cls-3" d="M110.91,1.89c-.26-.48-.48-.92-.65-1.27-.19-.4-.58-.64-1.01-.62-.46,.02-.79,.31-1.18,.64-.4,.35-.89,.77-1.37,.8-.28,.01-.57-.11-.88-.36-.18-.39-.56-.58-.92-.56-.49,.02-.95,.04-2.69,3.86-3.28,4.21-6.84,8.23-9.95,12.45-.08,.09-.16,.2-.21,.29-3.13,4.25-6.07,8.62-8.83,13.12-2.79,4.55-5.38,9.23-7.74,14.03-2.34,4.76-4.44,9.63-6.25,14.61-.95,2.62-1.65,5.32-2.21,8.04-.55,2.66-.88,5.36-1.41,8.03-.24,1.2-.43,2.41-.59,3.62-.13,1-.26,1.99-.36,2.99-.21,2.04-.43,4.15-.19,6.19,.2,1.71,.24,3.05,.26,4.1-4.01-2.32-4.75-4.8-5.37-7.29-.51-2.01-1.18-4.91-3.19-4.41-2.01,.51-3.24,2.55-2.73,4.57,1.27,5.05,5.73,9.21,12.24,11.42,.89,.3,1.82,.57,2.79,.78,5.63,1.27,12.32,1.01,16.57-2.35,1.63-1.29,1.91-3.66,.62-5.29-1.29-1.63-5.24,3.25-10.09,4.14-.68,.12-1.45,.26-2.31,.35-.78-5.18-.51-10.5,.23-15.67,.78-5.5,2.21-10.88,4.01-16.13,1.71-4.98,3.68-9.87,5.93-14.64,.81-1.71,1.68-3.38,2.52-5.07,3.76-7.17,8.19-14.26,13.33-20.55,2.37-2.91,6.81-7.11,9.76-9.43l.3-.24c.62-.48,1.52-1.19,3.54-2.86l.23-.19,.07-.29c.39-1.6-.79-4.03-2.25-6.8Z"/></g><g><path class="cls-3" d="M410.08,102.39l-39.62-9.17c-3.12-.73-4.95-2.2-4.95-5.32,0-7.15,8.8-8.62,14.31-8.62,11.61,0,22.11,4.29,26.91,14.66,.67,1.44,2.07,2.4,3.66,2.4h9.63c2.21,0,4-1.79,4-4v-22.37c0-2.21-1.79-4-4-4h-7.67c-1.21,0-2.35,.54-3.11,1.48l-1.45,1.79c-.29,.35-.77,.46-1.19,.28-10.05-4.58-20.45-7.48-31.74-7.48-21.09,0-42.92,9.35-42.92,33.56,0,14.85,7.52,23.11,22.01,26.05l35.77,7.88c4.22,.55,6.42,2.57,6.42,6.79,0,7.52-9.72,8.44-15.04,8.44-11.69,0-24.84-5-30.06-16.5-.65-1.43-2.03-2.39-3.6-2.39h-9.66c-2.21,0-4,1.79-4,4v27.3c0,2.21,1.79,4,4,4h8.27c1.57,0,3-.92,3.65-2.36l1.75-4.34c.26-.57,.95-.76,1.47-.41,9.37,6.33,20.88,9.49,32.4,9.49,19.63,0,44.39-11.27,44.39-34.93,0-12.1-7.15-23.48-19.62-26.23Z"/><path class="cls-3" d="M800.8,81.36c-1.55-12.73-12.13-19.28-24.76-19.28-8.5,0-19.78,2.59-28.46,18.33l1.04-10.03c.24-2.36-1.61-4.41-3.98-4.41h-42.22c-2.21,0-4,1.79-4,4v8.29c0,2.21,1.79,4,4,4h1.73c4.62,0,7.76,0,7.76,7.04v52.23c0,2.59-1.66,3.15-3.14,3.15h-6.35c-2.21,0-4,1.79-4,4v8.48c0,2.21,1.79,4,4,4h66.48c2.21,0,4-1.79,4-4v-8.48c0-2.21-1.79-4-4-4h-15.59c-1.85,0-3.51-1.11-3.51-3.89v-35.93c0-11.92,7.9-22.32,15.43-24.16,.85-.21,1.51,.76,1.04,1.51-1.15,1.83-1.88,3.81-1.88,6.72,0,9.54,8.29,15.49,17.65,15.37,11.88-.15,20.19-11.13,18.75-22.95Z"/><path class="cls-3" d="M907.51,146.08c-2.37,.34-4.82,.17-6.3-.74-2.49-1.52-3.53-5.67-3.53-10.11v-44.08c0-24.63-26.25-29.08-45.1-29.08-15.52,0-46.57,1.85-46.57,24.08,0,10.37,9.24,15.93,18.85,15.93,8.13,0,17.56-3.89,17.56-13.15,0-5.02-2.11-7.62-5.92-9.71-.64-.35-.71-1.24-.13-1.68,1.86-1.42,5.23-3.06,11.41-3.06,5.54,0,11.83,2.04,12.38,10.56v14.49c0,.5-.38,.93-.88,.99-9.26,1.13-17.68,3.12-25.92,5.64-16.26,5-32.71,11.85-32.71,31.11,0,18.15,15.34,26.3,31.42,26.3,11.45,0,23.06-4.08,29.94-14.53,.48-.72,1.58-.56,1.8,.27,3.39,12.77,15.68,14.26,20.38,14.26,8.9,0,18.93,0,24.9-1.4,1.78-.42,3.01-2.05,3.01-3.88v-8.26c0-2.45-2.17-4.3-4.59-3.95Zm-47.34-17.05c0,7.29-6.86,14.16-14.34,14.16-5.82,0-8.94-4.79-8.94-10.2,0-12.6,11.49-17.9,21.97-19.78,.69-.12,1.31,.42,1.31,1.11v14.71Z"/><path class="cls-3" d="M324.77,146.08c-2.37,.34-4.82,.17-6.3-.74-2.49-1.52-3.53-5.67-3.53-10.11v-44.08c0-24.63-26.25-29.08-45.1-29.08-15.52,0-46.57,1.85-46.57,24.08,0,10.37,9.24,15.93,18.85,15.93,8.13,0,17.56-3.89,17.56-13.15,0-5.02-2.11-7.62-5.92-9.71-.64-.35-.71-1.24-.13-1.68,1.86-1.42,5.23-3.06,11.41-3.06,5.54,0,11.83,2.04,12.38,10.56v14.49c0,.5-.38,.93-.88,.99-9.26,1.13-17.68,3.12-25.92,5.64-16.26,5-32.71,11.85-32.71,31.11,0,18.15,15.34,26.3,31.42,26.3,11.45,0,23.06-4.08,29.95-14.54,.47-.72,1.58-.56,1.8,.27,3.39,12.78,15.68,14.26,20.38,14.26,8.9,0,18.93,0,24.9-1.4,1.78-.42,3.01-2.05,3.01-3.88v-8.26c0-2.45-2.17-4.3-4.59-3.95Zm-47.55-17.05c0,7.29-6.86,14.16-14.34,14.16-5.82,0-8.94-4.79-8.94-10.2,0-12.6,11.49-17.9,21.97-19.78,.69-.12,1.31,.42,1.31,1.11v14.71Z"/><path class="cls-3" d="M1124.8,127.83h-10.55c-1.69,0-3.22,1.05-3.77,2.65-3.72,10.91-10.51,14.58-23.04,14.58-18.11,0-23.84-10-23.84-27.41h61.2c2.26,0,4.1-1.88,4-4.13-1.4-32.32-16.76-51.43-50.99-51.43-31.79,0-51.69,18.33-51.69,51.12,0,35.38,19.92,50.35,52.45,50.35,21.33,0,45.72-7.8,50.16-30.96,.47-2.47-1.42-4.77-3.93-4.77Zm-45.3-49.41c13.01,0,15.07,14.07,15.07,24h-30.97c0-9.93,4.13-24,15.9-24Z"/><path class="cls-3" d="M213.34,65.97h-16.89c-.55,0-1-.45-1-1V32.93c0-2.21-1.79-4-4-4h-11.75c-2.08,0-3.86,1.58-4.02,3.65-1.29,17.08-11.73,31.67-31.93,33.25-2.08,.16-3.69,1.89-3.69,3.98v8.45c0,2.21,1.79,4,4,4h12.98c.55,0,1,.45,1,1v54.56c0,19.82,15.74,25.72,33.15,25.72,11.14,0,14.5,.02,22.02-1.64,1.83-.4,3.13-2.03,3.13-3.91v-8.47c0-2.4-2.11-4.28-4.49-3.97-3.19,.42-4.32,.17-7.32-.21-6.98-.88-9.08-5.67-9.08-12.52v-49.56c0-.55,.45-1,1-1h16.89c2.21,0,4-1.79,4-4v-8.29c0-2.21-1.79-4-4-4Z"/><path class="cls-3" d="M686.75,65.97h-16.85c-.55,0-1-.45-1-1V32.93c0-2.21-1.79-4-4-4h-11.66c-2.1,0-3.9,1.6-4.06,3.69-1.21,15.85-12.61,33.35-27.94,33.35h-40.59c-2.21,0-4,1.79-4,4v8.29c0,2.21,1.79,4,4,4h4.08c4.08,0,4.45,1.11,4.45,3.15,0,1.6-13.83,36.95-17.59,46.52-.33,.84-1.52,.84-1.85,0-3.66-9.54-17.05-44.6-17.05-46.51,0-2.96,1.48-3.15,8.52-3.15h1.19c2.21,0,4-1.79,4-4v-8.29c0-2.21-1.79-4-4-4h-76.28c-.55,0-1-.45-1-1V32.93c0-2.21-1.79-4-4-4h-11.75c-2.08,0-3.86,1.58-4.02,3.65-1.29,17.08-11.73,31.67-31.93,33.25-2.08,.16-3.69,1.89-3.69,3.98v8.45c0,2.21,1.79,4,4,4h12.98c.55,0,1,.45,1,1v54.56c0,19.82,15.74,25.72,33.15,25.72,11.14,0,15.5,.02,23.02-1.64,1.83-.4,3.13-2.03,3.13-3.91v-8.47c0-2.4-2.11-4.28-4.49-3.97-3.19,.42-5.32,.17-8.32-.21-6.98-.88-9.08-5.67-9.08-12.52v-49.56c0-.55,.45-1,1-1h22.3c2.94-.14,4.78,1.94,6.12,4.63,21.52,50.06,30.54,70.96,34.32,79.72,1.92,4.45,1.92,9.54-.15,13.92-4.13,8.75-9.75,13.22-17.13,13.22-1.27,0-2.29-.21-3.07-.51-.76-.3-.82-1.35-.12-1.77,4.06-2.45,6.15-5.52,6.15-10.68,0-9.26-6.85-14.26-15.74-14.26-11.67,0-19.63,6.48-19.63,18.89,0,16.48,15.37,23.52,30,23.52,15.37,0,29.45-7.04,35.74-21.48,14.21-32.66,37.28-87.28,43.34-101.65,.91-2.15,3.02-3.55,5.36-3.55h16.96c.55,0,1,.45,1,1v54.56c0,19.82,15.71,25.72,33.08,25.72,11.12,0,15.46,.02,22.97-1.64,1.83-.4,3.13-2.03,3.13-3.9v-8.47c0-2.4-2.11-4.28-4.5-3.97-3.18,.42-5.3,.17-8.29-.21-6.97-.88-9.06-5.67-9.06-12.52v-49.56c0-.55,.45-1,1-1h16.85c2.21,0,4-1.79,4-4v-8.29c0-2.21-1.79-4-4-4Z"/><path class="cls-3" d="M1026.94,144.68h-6c-1.85,0-3.7-1.85-3.7-3.89V28.87c0-4.59-3.86-8.24-8.44-7.99l-41,2.28c-2.12,.12-3.78,1.87-3.78,3.99v8.51c0,2.21,1.79,4,4,4h7.11c2.56,0,4.63,2.07,4.63,4.63v22.41c0,.84-.96,1.29-1.63,.78-2.67-2.08-9.22-5.41-23.75-5.41-29.63,0-44.26,22.6-44.26,50.19s11.11,51.3,41.3,51.3c9.81,0,20.39-2.01,26.95-9.7,.6-.71,1.75-.28,1.75,.65v4.64c0,1.1,.9,2,2,2h44.82c2.21,0,4-1.79,4-4v-8.48c0-2.21-1.79-4-4-4Zm-62.19,1.85c-11.48,0-14.26-7.78-14.26-32.22s3.15-34.26,15-34.26c14.82,0,14.82,22.6,14.82,33.89,0,13.89-1.29,32.6-15.56,32.6Z"/></g></g></g></svg>