<svg xmlns="http://www.w3.org/2000/svg" width="24" height="24" viewBox="0 0 24 24" class="w-5" data-tw-icon-name="Darkmode"><path fill-rule="evenodd" d="M8.445 4.095a.75.75 0 0 0-1.011-1.012A10.01 10.01 0 0 0 2 11.99C2 17.518 6.482 22 12.011 22a10.01 10.01 0 0 0 8.906-5.434.75.75 0 0 0-1.012-1.011 8.47 8.47 0 0 1-3.89.939 8.51 8.51 0 0 1-8.509-8.51 8.47 8.47 0 0 1 .939-3.89Zm-4.943 7.894a8.487 8.487 0 0 1 2.761-6.275c-.17.73-.259 1.49-.259 2.27 0 5.53 4.483 10.012 10.012 10.012a10 10 0 0 0 2.27-.26 8.51 8.51 0 0 1-14.784-5.748Z" clip-rule="evenodd"></path></svg>