<svg xmlns="http://www.w3.org/2000/svg" width="24" height="24" viewBox="0 0 24 24" class="w-5" data-tw-icon-name="Lightmode"><path fill="white" d="M12 2a.75.75 0 0 1 .75.75v2a.75.75 0 0 1-1.5 0v-2A.75.75 0 0 1 12 2Z"></path><path fill="white" fill-rule="evenodd" d="M7 12a5 5 0 1 1 10 0 5 5 0 0 1-10 0Zm5-3.5a3.5 3.5 0 1 0 0 7 3.5 3.5 0 0 0 0-7Z" clip-rule="evenodd"></path><path fill="white" d="M12.75 19.25a.75.75 0 0 0-1.5 0v2a.75.75 0 0 0 1.5 0v-2ZM22 12a.75.75 0 0 1-.75.75h-2a.75.75 0 0 1 0-1.5h2A.75.75 0 0 1 22 12Zm-17.25.75a.75.75 0 0 0 0-1.5h-2a.75.75 0 0 0 0 1.5h2Zm14.321 6.321a.75.75 0 0 1-1.06 0l-1.415-1.414a.75.75 0 0 1 1.06-1.06l1.415 1.413a.75.75 0 0 1 0 1.061ZM6.343 7.404a.75.75 0 0 0 1.06-1.06L5.99 4.928a.75.75 0 0 0-1.061 1.06l1.414 1.415ZM4.929 19.071a.75.75 0 0 1 0-1.06l1.414-1.415a.75.75 0 1 1 1.06 1.06L5.99 19.072a.75.75 0 0 1-1.061 0ZM16.596 6.343a.75.75 0 1 0 1.06 1.06l1.415-1.413a.75.75 0 1 0-1.06-1.061l-1.415 1.414Z"></path></svg>